# xmcd
#
# Track frame offsets:
#	150
#	11045
#	27740
#	35767
#	46930
#	58575
#	71115
#	94872
#	110612
#	144477
#	160560
#	195247
#	208777
#	225295
#	232960
#
# Disc length: 3320 seconds
#
# Revision: 0
# Processed by: cddbd v1.5.2PL0 Copyright (c) Steve Scherf et al.
# Submitted via: EasyCDDAExtractor 15.2.5.1
#
DISCID=c80cf60f
DTITLE=Soundtracks - Film Music Songbook 2
DYEAR=1900
DGENRE=
TTITLE0=Piano
TTITLE1=Ghost
TTITLE2=Damage
TTITLE3=The Secret Garden
TTITLE4=Dance of Wolves
TTITLE5=Pottailt of a Lady
TTITLE6=Hamliet
TTITLE7=The Thomas Crown Affair
TTITLE8=Blode Runner
TTITLE9=Choritors of fire
TTITLE10=Memphis Belle
TTITLE11=Ben Hur
TTITLE12=Somewhere in Time
TTITLE13=You've Got a Mail
TTITLE14=Summer of '42
EXTD=
EXTT0=
EXTT1=
EXTT2=
EXTT3=
EXTT4=
EXTT5=
EXTT6=
EXTT7=
EXTT8=
EXTT9=
EXTT10=
EXTT11=
EXTT12=
EXTT13=
EXTT14=
PLAYORDER=
